<mxfile host="65bd71144e">
    <diagram id="C5RBs43oDa-KdzZeNtuy" name="Page-1">
        <mxGraphModel dx="746" dy="301" grid="1" gridSize="10" guides="1" tooltips="1" connect="1" arrows="1" fold="1" page="1" pageScale="1" pageWidth="827" pageHeight="1169" math="0" shadow="0">
            <root>
                <mxCell id="WIyWlLk6GJQsqaUBKTNV-0"/>
                <mxCell id="WIyWlLk6GJQsqaUBKTNV-1" parent="WIyWlLk6GJQsqaUBKTNV-0"/>
                <mxCell id="TBOGh352oyX1296FKRRM-0" value="&lt;font color=&quot;#000000&quot;&gt;INICIO&lt;/font&gt;" style="rounded=1;whiteSpace=wrap;html=1;absoluteArcSize=1;arcSize=14;strokeWidth=2;fillColor=#cce5ff;strokeColor=#36393d;" parent="WIyWlLk6GJQsqaUBKTNV-1" vertex="1">
                    <mxGeometry x="70" y="110" width="100" height="100" as="geometry"/>
                </mxCell>
                <mxCell id="TBOGh352oyX1296FKRRM-2" value="&lt;div&gt;&lt;font color=&quot;#000000&quot;&gt;El path es absoluto o relativo?&lt;/font&gt;&lt;/div&gt;" style="strokeWidth=2;html=1;shape=mxgraph.flowchart.decision;whiteSpace=wrap;fillColor=#f5f5f5;fontColor=#333333;strokeColor=#666666;" parent="WIyWlLk6GJQsqaUBKTNV-1" vertex="1">
                    <mxGeometry x="593" y="215" width="130" height="130" as="geometry"/>
                </mxCell>
                <mxCell id="TBOGh352oyX1296FKRRM-3" value="&lt;div&gt;El path existe?&lt;/div&gt;" style="strokeWidth=2;html=1;shape=mxgraph.flowchart.decision;whiteSpace=wrap;fillColor=#f5f5f5;fontColor=#333333;strokeColor=#666666;" parent="WIyWlLk6GJQsqaUBKTNV-1" vertex="1">
                    <mxGeometry x="430" y="215" width="123" height="130" as="geometry"/>
                </mxCell>
                <mxCell id="TBOGh352oyX1296FKRRM-4" value="FIN" style="rounded=1;whiteSpace=wrap;html=1;absoluteArcSize=1;arcSize=14;strokeWidth=2;fillColor=#f5f5f5;fontColor=#333333;strokeColor=#666666;" parent="WIyWlLk6GJQsqaUBKTNV-1" vertex="1">
                    <mxGeometry x="608" y="573" width="100" height="100" as="geometry"/>
                </mxCell>
                <mxCell id="TBOGh352oyX1296FKRRM-5" value="&lt;font color=&quot;#0f0f0f&quot;&gt;Es relativo&lt;/font&gt;" style="text;strokeColor=#82b366;align=center;fillColor=#d5e8d4;html=1;verticalAlign=middle;whiteSpace=wrap;rounded=0;strokeWidth=2;" parent="WIyWlLk6GJQsqaUBKTNV-1" vertex="1">
                    <mxGeometry x="590" y="150" width="60" height="30" as="geometry"/>
                </mxCell>
                <mxCell id="TBOGh352oyX1296FKRRM-6" value="" style="endArrow=classic;html=1;rounded=0;strokeWidth=2;endSize=4;exitX=1;exitY=0.5;exitDx=0;exitDy=0;exitPerimeter=0;" parent="WIyWlLk6GJQsqaUBKTNV-1" source="TBOGh352oyX1296FKRRM-2" edge="1">
                    <mxGeometry width="50" height="50" relative="1" as="geometry">
                        <mxPoint x="699" y="278.8299999999999" as="sourcePoint"/>
                        <mxPoint x="780" y="280" as="targetPoint"/>
                    </mxGeometry>
                </mxCell>
                <mxCell id="TBOGh352oyX1296FKRRM-7" value="&lt;font color=&quot;#0d0d0d&quot;&gt;Es absoluto&lt;/font&gt;" style="text;strokeColor=#82b366;align=center;fillColor=#d5e8d4;html=1;verticalAlign=middle;whiteSpace=wrap;rounded=0;strokeWidth=2;" parent="WIyWlLk6GJQsqaUBKTNV-1" vertex="1">
                    <mxGeometry x="723" y="240" width="74" height="30" as="geometry"/>
                </mxCell>
                <mxCell id="TBOGh352oyX1296FKRRM-8" value="" style="endArrow=classic;html=1;rounded=0;strokeWidth=2;endSize=4;exitX=0.5;exitY=0;exitDx=0;exitDy=0;exitPerimeter=0;" parent="WIyWlLk6GJQsqaUBKTNV-1" source="TBOGh352oyX1296FKRRM-2" edge="1">
                    <mxGeometry width="50" height="50" relative="1" as="geometry">
                        <mxPoint x="639" y="189.75" as="sourcePoint"/>
                        <mxPoint x="690" y="140" as="targetPoint"/>
                        <Array as="points">
                            <mxPoint x="658" y="140"/>
                        </Array>
                    </mxGeometry>
                </mxCell>
                <mxCell id="TBOGh352oyX1296FKRRM-9" value="" style="endArrow=classic;html=1;rounded=0;strokeWidth=2;endSize=4;entryX=0.5;entryY=0;entryDx=0;entryDy=0;exitX=0.993;exitY=0.39;exitDx=0;exitDy=0;exitPerimeter=0;entryPerimeter=0;" parent="WIyWlLk6GJQsqaUBKTNV-1" source="TBOGh352oyX1296FKRRM-37" target="TBOGh352oyX1296FKRRM-12" edge="1">
                    <mxGeometry width="50" height="50" relative="1" as="geometry">
                        <mxPoint x="827.4000000000001" y="138.38" as="sourcePoint"/>
                        <mxPoint x="850" y="241" as="targetPoint"/>
                        <Array as="points">
                            <mxPoint x="840" y="143"/>
                        </Array>
                    </mxGeometry>
                </mxCell>
                <mxCell id="TBOGh352oyX1296FKRRM-12" value="&lt;div&gt;Es un archivo&lt;/div&gt;&lt;div&gt;.md?&lt;br&gt;&lt;/div&gt;" style="strokeWidth=2;html=1;shape=mxgraph.flowchart.decision;whiteSpace=wrap;fillColor=#f5f5f5;fontColor=#333333;strokeColor=#666666;" parent="WIyWlLk6GJQsqaUBKTNV-1" vertex="1">
                    <mxGeometry x="780" y="215" width="120" height="130" as="geometry"/>
                </mxCell>
                <mxCell id="TBOGh352oyX1296FKRRM-13" value="&lt;div&gt;El archivo&lt;/div&gt;&lt;div&gt;contiene&lt;/div&gt;&lt;div&gt;links?&lt;br&gt;&lt;/div&gt;" style="strokeWidth=2;html=1;shape=mxgraph.flowchart.decision;whiteSpace=wrap;fillColor=#f5f5f5;fontColor=#333333;strokeColor=#666666;" parent="WIyWlLk6GJQsqaUBKTNV-1" vertex="1">
                    <mxGeometry x="950" y="215.5" width="120" height="129" as="geometry"/>
                </mxCell>
                <mxCell id="TBOGh352oyX1296FKRRM-14" value="&lt;div style=&quot;font-size: 14px;&quot;&gt;&lt;font style=&quot;font-size: 14px;&quot; color=&quot;#000000&quot;&gt;&lt;b style=&quot;&quot;&gt;mensaje de error&lt;/b&gt;&lt;/font&gt;&lt;/div&gt;&lt;div style=&quot;font-size: 14px;&quot;&gt;&lt;font style=&quot;font-size: 14px;&quot; color=&quot;#000000&quot;&gt;&lt;b style=&quot;&quot;&gt;(FIN)&lt;/b&gt;&lt;/font&gt;&lt;br&gt;&lt;/div&gt;" style="rounded=0;whiteSpace=wrap;html=1;strokeColor=#6F0000;strokeWidth=2;fillColor=#a20025;fontColor=#ffffff;" parent="WIyWlLk6GJQsqaUBKTNV-1" vertex="1">
                    <mxGeometry x="650" y="418" width="120" height="60" as="geometry"/>
                </mxCell>
                <mxCell id="TBOGh352oyX1296FKRRM-16" value="&lt;div&gt;&lt;font color=&quot;#000000&quot;&gt;Los links son&lt;br&gt;&lt;/font&gt;&lt;/div&gt;&lt;div&gt;&lt;font color=&quot;#000000&quot;&gt;vÃ¡lidos?&lt;/font&gt;&lt;/div&gt;" style="strokeWidth=2;html=1;shape=mxgraph.flowchart.decision;whiteSpace=wrap;fillColor=#f5f5f5;fontColor=#333333;strokeColor=#666666;" parent="WIyWlLk6GJQsqaUBKTNV-1" vertex="1">
                    <mxGeometry x="770" y="563" width="120" height="120" as="geometry"/>
                </mxCell>
                <mxCell id="TBOGh352oyX1296FKRRM-17" value="" style="endArrow=classic;html=1;rounded=0;strokeWidth=2;endSize=4;entryX=0;entryY=0.5;entryDx=0;entryDy=0;exitX=0.99;exitY=0.498;exitDx=0;exitDy=0;exitPerimeter=0;entryPerimeter=0;" parent="WIyWlLk6GJQsqaUBKTNV-1" source="TBOGh352oyX1296FKRRM-3" target="TBOGh352oyX1296FKRRM-2" edge="1">
                    <mxGeometry width="50" height="50" relative="1" as="geometry">
                        <mxPoint x="563" y="279.75" as="sourcePoint"/>
                        <mxPoint x="615.72" y="279.9100000000001" as="targetPoint"/>
                    </mxGeometry>
                </mxCell>
                <mxCell id="TBOGh352oyX1296FKRRM-18" value="" style="endArrow=classic;html=1;rounded=0;strokeWidth=2;endSize=4;exitX=1;exitY=0.5;exitDx=0;exitDy=0;" parent="WIyWlLk6GJQsqaUBKTNV-1" source="TBOGh352oyX1296FKRRM-36" edge="1">
                    <mxGeometry width="50" height="50" relative="1" as="geometry">
                        <mxPoint x="379.76" y="276.45500000000004" as="sourcePoint"/>
                        <mxPoint x="430" y="280" as="targetPoint"/>
                    </mxGeometry>
                </mxCell>
                <mxCell id="TBOGh352oyX1296FKRRM-19" value="" style="endArrow=classic;html=1;rounded=0;strokeWidth=2;endSize=4;exitX=1;exitY=0.5;exitDx=0;exitDy=0;" parent="WIyWlLk6GJQsqaUBKTNV-1" edge="1">
                    <mxGeometry width="50" height="50" relative="1" as="geometry">
                        <mxPoint x="180" y="280" as="sourcePoint"/>
                        <mxPoint x="250" y="280" as="targetPoint"/>
                    </mxGeometry>
                </mxCell>
                <mxCell id="TBOGh352oyX1296FKRRM-20" value="" style="endArrow=classic;html=1;rounded=0;strokeWidth=2;endSize=4;entryX=0.5;entryY=0;entryDx=0;entryDy=0;exitX=0.5;exitY=1;exitDx=0;exitDy=0;" parent="WIyWlLk6GJQsqaUBKTNV-1" source="TBOGh352oyX1296FKRRM-0" edge="1">
                    <mxGeometry width="50" height="50" relative="1" as="geometry">
                        <mxPoint x="79.99999999999994" y="230" as="sourcePoint"/>
                        <mxPoint x="120" y="250" as="targetPoint"/>
                    </mxGeometry>
                </mxCell>
                <mxCell id="TBOGh352oyX1296FKRRM-21" value="" style="endArrow=classic;html=1;rounded=0;strokeWidth=2;endSize=4;exitX=1;exitY=0.5;exitDx=0;exitDy=0;exitPerimeter=0;" parent="WIyWlLk6GJQsqaUBKTNV-1" source="TBOGh352oyX1296FKRRM-12" edge="1">
                    <mxGeometry width="50" height="50" relative="1" as="geometry">
                        <mxPoint x="848.36" y="338.8" as="sourcePoint"/>
                        <mxPoint x="950" y="280" as="targetPoint"/>
                    </mxGeometry>
                </mxCell>
                <mxCell id="TBOGh352oyX1296FKRRM-22" value="" style="endArrow=classic;html=1;rounded=0;strokeWidth=2;endSize=4;entryX=0.5;entryY=0;entryDx=0;entryDy=0;exitX=0.5;exitY=0.996;exitDx=0;exitDy=0;exitPerimeter=0;" parent="WIyWlLk6GJQsqaUBKTNV-1" source="TBOGh352oyX1296FKRRM-13" edge="1">
                    <mxGeometry width="50" height="50" relative="1" as="geometry">
                        <mxPoint x="847.6599999999999" y="489" as="sourcePoint"/>
                        <mxPoint x="1010" y="593" as="targetPoint"/>
                    </mxGeometry>
                </mxCell>
                <mxCell id="TBOGh352oyX1296FKRRM-23" value="" style="endArrow=classic;html=1;rounded=0;strokeWidth=2;endSize=4;entryX=1;entryY=0.5;entryDx=0;entryDy=0;entryPerimeter=0;" parent="WIyWlLk6GJQsqaUBKTNV-1" target="TBOGh352oyX1296FKRRM-16" edge="1">
                    <mxGeometry width="50" height="50" relative="1" as="geometry">
                        <mxPoint x="949" y="623" as="sourcePoint"/>
                        <mxPoint x="921.6599999999999" y="653" as="targetPoint"/>
                    </mxGeometry>
                </mxCell>
                <mxCell id="TBOGh352oyX1296FKRRM-24" value="" style="endArrow=classic;html=1;rounded=0;strokeWidth=2;endSize=4;exitX=0;exitY=0.5;exitDx=0;exitDy=0;exitPerimeter=0;" parent="WIyWlLk6GJQsqaUBKTNV-1" source="TBOGh352oyX1296FKRRM-16" target="TBOGh352oyX1296FKRRM-4" edge="1">
                    <mxGeometry width="50" height="50" relative="1" as="geometry">
                        <mxPoint x="779" y="622.83" as="sourcePoint"/>
                        <mxPoint x="709" y="623" as="targetPoint"/>
                    </mxGeometry>
                </mxCell>
                <mxCell id="TBOGh352oyX1296FKRRM-25" value="&lt;font color=&quot;#080808&quot;&gt;SI&lt;/font&gt;" style="text;strokeColor=#d6b656;align=center;fillColor=#fff2cc;html=1;verticalAlign=middle;whiteSpace=wrap;rounded=0;strokeWidth=2;" parent="WIyWlLk6GJQsqaUBKTNV-1" vertex="1">
                    <mxGeometry x="553" y="240" width="29" height="30" as="geometry"/>
                </mxCell>
                <mxCell id="TBOGh352oyX1296FKRRM-26" value="" style="endArrow=classic;html=1;rounded=0;strokeWidth=2;endSize=4;exitX=0.5;exitY=1;exitDx=0;exitDy=0;exitPerimeter=0;entryX=0;entryY=0.5;entryDx=0;entryDy=0;" parent="WIyWlLk6GJQsqaUBKTNV-1" source="TBOGh352oyX1296FKRRM-3" target="TBOGh352oyX1296FKRRM-14" edge="1">
                    <mxGeometry width="50" height="50" relative="1" as="geometry">
                        <mxPoint x="510" y="430" as="sourcePoint"/>
                        <mxPoint x="542" y="351" as="targetPoint"/>
                        <Array as="points">
                            <mxPoint x="492" y="448"/>
                        </Array>
                    </mxGeometry>
                </mxCell>
                <mxCell id="TBOGh352oyX1296FKRRM-27" value="&lt;font color=&quot;#0d0d0d&quot;&gt;NO&lt;/font&gt;" style="text;strokeColor=#b85450;align=center;fillColor=#f8cecc;html=1;verticalAlign=middle;whiteSpace=wrap;rounded=0;strokeWidth=2;" parent="WIyWlLk6GJQsqaUBKTNV-1" vertex="1">
                    <mxGeometry x="500" y="383" width="29" height="30" as="geometry"/>
                </mxCell>
                <mxCell id="TBOGh352oyX1296FKRRM-28" value="&lt;font color=&quot;#000000&quot;&gt;NO&lt;/font&gt;" style="text;strokeColor=#b85450;align=center;fillColor=#f8cecc;html=1;verticalAlign=middle;whiteSpace=wrap;rounded=0;strokeWidth=2;" parent="WIyWlLk6GJQsqaUBKTNV-1" vertex="1">
                    <mxGeometry x="800" y="360" width="30" height="30" as="geometry"/>
                </mxCell>
                <mxCell id="TBOGh352oyX1296FKRRM-29" value="&lt;font color=&quot;#000000&quot;&gt;SI&lt;/font&gt;" style="text;strokeColor=#d6b656;align=center;fillColor=#fff2cc;html=1;verticalAlign=middle;whiteSpace=wrap;rounded=0;strokeWidth=2;" parent="WIyWlLk6GJQsqaUBKTNV-1" vertex="1">
                    <mxGeometry x="1020" y="433" width="29" height="30" as="geometry"/>
                </mxCell>
                <mxCell id="TBOGh352oyX1296FKRRM-30" value="" style="endArrow=none;html=1;rounded=0;strokeWidth=2;endSize=6;entryX=0.252;entryY=0.751;entryDx=0;entryDy=0;entryPerimeter=0;" parent="WIyWlLk6GJQsqaUBKTNV-1" target="TBOGh352oyX1296FKRRM-13" edge="1">
                    <mxGeometry width="50" height="50" relative="1" as="geometry">
                        <mxPoint x="840" y="390" as="sourcePoint"/>
                        <mxPoint x="979" y="310" as="targetPoint"/>
                        <Array as="points">
                            <mxPoint x="899" y="390"/>
                        </Array>
                    </mxGeometry>
                </mxCell>
                <mxCell id="TBOGh352oyX1296FKRRM-31" value="&lt;font color=&quot;#0d0d0d&quot;&gt;NO&lt;/font&gt;" style="text;strokeColor=#b85450;align=center;fillColor=#f8cecc;html=1;verticalAlign=middle;whiteSpace=wrap;rounded=0;strokeWidth=2;" parent="WIyWlLk6GJQsqaUBKTNV-1" vertex="1">
                    <mxGeometry x="908" y="330" width="29" height="30" as="geometry"/>
                </mxCell>
                <mxCell id="TBOGh352oyX1296FKRRM-32" value="" style="endArrow=classic;html=1;rounded=0;strokeWidth=1;endSize=6;" parent="WIyWlLk6GJQsqaUBKTNV-1" edge="1">
                    <mxGeometry width="50" height="50" relative="1" as="geometry">
                        <mxPoint x="940" y="349" as="sourcePoint"/>
                        <mxPoint x="920" y="369" as="targetPoint"/>
                    </mxGeometry>
                </mxCell>
                <mxCell id="TBOGh352oyX1296FKRRM-33" value="&lt;font color=&quot;#0d0d0d&quot;&gt;SI&lt;/font&gt;" style="text;strokeColor=#d6b656;align=center;fillColor=#fff2cc;html=1;verticalAlign=middle;whiteSpace=wrap;rounded=0;strokeWidth=2;" parent="WIyWlLk6GJQsqaUBKTNV-1" vertex="1">
                    <mxGeometry x="908" y="240" width="29" height="30" as="geometry"/>
                </mxCell>
                <mxCell id="TBOGh352oyX1296FKRRM-34" value="" style="endArrow=classic;html=1;rounded=0;strokeWidth=2;endSize=4;" parent="WIyWlLk6GJQsqaUBKTNV-1" edge="1">
                    <mxGeometry width="50" height="50" relative="1" as="geometry">
                        <mxPoint x="840" y="340" as="sourcePoint"/>
                        <mxPoint x="770" y="448" as="targetPoint"/>
                        <Array as="points">
                            <mxPoint x="840" y="448"/>
                        </Array>
                    </mxGeometry>
                </mxCell>
                <mxCell id="TBOGh352oyX1296FKRRM-35" value="&lt;br&gt;&lt;span style=&quot;color: rgb(0, 0, 0); font-family: Helvetica; font-size: 12px; font-style: normal; font-variant-ligatures: normal; font-variant-caps: normal; font-weight: 400; letter-spacing: normal; orphans: 2; text-indent: 0px; text-transform: none; widows: 2; word-spacing: 0px; -webkit-text-stroke-width: 0px; text-decoration-thickness: initial; text-decoration-style: initial; text-decoration-color: initial; float: none; display: inline !important;&quot;&gt;Recibe la funcion mdLinks(path, options)&lt;/span&gt;&lt;br&gt;" style="rounded=1;whiteSpace=wrap;html=1;fillColor=#eeeeee;strokeColor=#36393d;strokeWidth=2;align=center;labelBackgroundColor=none;" parent="WIyWlLk6GJQsqaUBKTNV-1" vertex="1">
                    <mxGeometry x="60" y="250" width="120" height="60" as="geometry"/>
                </mxCell>
                <mxCell id="TBOGh352oyX1296FKRRM-36" value="&lt;p style=&quot;line-height: 90%;&quot;&gt;&lt;br&gt;&lt;span style=&quot;color: rgb(51, 51, 51); font-family: Helvetica; font-size: 12px; font-style: normal; font-variant-ligatures: normal; font-variant-caps: normal; font-weight: 400; letter-spacing: normal; orphans: 2; text-indent: 0px; text-transform: none; widows: 2; word-spacing: 0px; -webkit-text-stroke-width: 0px; text-decoration-thickness: initial; text-decoration-style: initial; text-decoration-color: initial; float: none; display: inline !important;&quot;&gt;Esta leyendo el path?&lt;/span&gt;&lt;br&gt;&lt;/p&gt;" style="rounded=1;whiteSpace=wrap;html=1;strokeColor=#36393d;strokeWidth=2;align=center;fillColor=#eeeeee;labelBackgroundColor=none;" parent="WIyWlLk6GJQsqaUBKTNV-1" vertex="1">
                    <mxGeometry x="250" y="250" width="120" height="60" as="geometry"/>
                </mxCell>
                <mxCell id="TBOGh352oyX1296FKRRM-37" value="&#10;&lt;span style=&quot;color: rgb(0, 0, 0); font-family: Helvetica; font-size: 12px; font-style: normal; font-variant-ligatures: normal; font-variant-caps: normal; font-weight: 400; letter-spacing: normal; orphans: 2; text-align: center; text-indent: 0px; text-transform: none; widows: 2; word-spacing: 0px; -webkit-text-stroke-width: 0px; background-color: rgb(251, 251, 251); text-decoration-thickness: initial; text-decoration-style: initial; text-decoration-color: initial; float: none; display: inline !important;&quot;&gt;Cambiar de ruta relativa a absoluta&lt;/span&gt;&#10;&#10;" style="rounded=1;whiteSpace=wrap;html=1;strokeColor=#666666;strokeWidth=2;fillColor=#f5f5f5;fontColor=#333333;" parent="WIyWlLk6GJQsqaUBKTNV-1" vertex="1">
                    <mxGeometry x="690" y="120" width="120" height="60" as="geometry"/>
                </mxCell>
                <mxCell id="TBOGh352oyX1296FKRRM-41" value="&#10;&lt;span style=&quot;color: rgb(0, 0, 0); font-family: Helvetica; font-size: 12px; font-style: normal; font-variant-ligatures: normal; font-variant-caps: normal; font-weight: 400; letter-spacing: normal; orphans: 2; text-align: center; text-indent: 0px; text-transform: none; widows: 2; word-spacing: 0px; -webkit-text-stroke-width: 0px; background-color: rgb(251, 251, 251); text-decoration-thickness: initial; text-decoration-style: initial; text-decoration-color: initial; float: none; display: inline !important;&quot;&gt;Traer los links&lt;/span&gt;&#10;&#10;" style="rounded=1;whiteSpace=wrap;html=1;strokeColor=#666666;strokeWidth=2;fillColor=#f5f5f5;fontColor=#333333;" parent="WIyWlLk6GJQsqaUBKTNV-1" vertex="1">
                    <mxGeometry x="950" y="600" width="120" height="60" as="geometry"/>
                </mxCell>
            </root>
        </mxGraphModel>
    </diagram>
</mxfile>